<svg xmlns="http://www.w3.org/2000/svg" width="364.437" height="135.9" viewBox="0 0 364.437 135.9">
  <g id="Group_15" data-name="Group 15" transform="translate(-799 -5312.1)">
    <text id="UI_UX_Gemastik_2020" data-name="UI/UX Gemastik 2020" transform="translate(981 5439)" font-size="32" font-family="OpenSans-SemiBold, Open Sans" font-weight="600"><tspan x="-162.773" y="0">UI/UX Gemastik 2020</tspan></text>
    <g id="Main_Logo" data-name="Main Logo" transform="translate(783.308 5162)">
      <path id="Path_1" data-name="Path 1" d="M69.329-3.688A33.007,33.007,0,0,1,63.017.669a46.467,46.467,0,0,1-9.158,3.779A37.982,37.982,0,0,1,42.834,6,38.93,38.93,0,0,1,29.408,3.736,33.154,33.154,0,0,1,18.517-2.71,28.83,28.83,0,0,1,11.27-12.8,32.7,32.7,0,0,1,8.692-26,29.347,29.347,0,0,1,11.4-38.63a30.841,30.841,0,0,1,7.513-10.047A35.176,35.176,0,0,1,29.942-55.3,36.853,36.853,0,0,1,43.1-57.657,38.255,38.255,0,0,1,54.037-56.1a42.923,42.923,0,0,1,9.38,3.957,30.353,30.353,0,0,1,6.624,4.979L64.084-39.43A39.662,39.662,0,0,0,54.392-45.7a28.485,28.485,0,0,0-12-2.445,26.177,26.177,0,0,0-8.8,1.511,24.5,24.5,0,0,0-7.691,4.4,21.237,21.237,0,0,0-5.424,6.98,20.771,20.771,0,0,0-2,9.247,21.079,21.079,0,0,0,3.556,12.492,22,22,0,0,0,9.38,7.557,30.748,30.748,0,0,0,12.4,2.534A26.907,26.907,0,0,0,52.436-4.71a33.121,33.121,0,0,0,6.846-3.156A61.374,61.374,0,0,0,64.706-11.6Zm37.787-38.854q6.846,0,11.247,2.712a16.524,16.524,0,0,1,6.491,7.2,23.209,23.209,0,0,1,2.089,9.914V5.114h-9.158V-21.47a12.227,12.227,0,0,0-3.823-9.247,13.411,13.411,0,0,0-9.869-3.556A15.976,15.976,0,0,0,95.736-32.1a17.033,17.033,0,0,0-5.69,5.335A11.352,11.352,0,0,0,88-20.581v25.7H78.843V-60.68H88v26.851a25.9,25.9,0,0,1,8-6.09A23.817,23.817,0,0,1,107.117-42.542ZM188.559-1.021h-.089A35.646,35.646,0,0,1,182.291,2.4a42.227,42.227,0,0,1-8.135,2.623A42.083,42.083,0,0,1,165.087,6a36.979,36.979,0,0,1-15.515-3.067,25.022,25.022,0,0,1-10.447-8.447,20.923,20.923,0,0,1-3.734-12.225,22.466,22.466,0,0,1,3.957-13.381,25.606,25.606,0,0,1,10.536-8.535,34.516,34.516,0,0,1,14.4-2.979,29.953,29.953,0,0,1,13.248,2.89,24.347,24.347,0,0,1,9.513,7.958A20.064,20.064,0,0,1,190.6-19.959l-.089,4.534H144.726a14.069,14.069,0,0,0,7.157,9.514Q157.8-2.443,166.6-2.443A26.874,26.874,0,0,0,177.4-4.31a53.7,53.7,0,0,0,6.891-3.556ZM164.287-34.184a28.394,28.394,0,0,0-12.581,2.623,12.341,12.341,0,0,0-6.8,8.847h36.365V-23.96a8.942,8.942,0,0,0-2.934-5.335,17.354,17.354,0,0,0-6.179-3.6A23.686,23.686,0,0,0,164.287-34.184Zm67.661,2.49H213.9V5.114h-8.624V-31.695H195.228v-8.447h10.047v-2.845a18,18,0,0,1,2.267-9.113,16.512,16.512,0,0,1,6.224-6.224,18.184,18.184,0,0,1,9.2-2.267,18.758,18.758,0,0,1,7.557,1.334,16.091,16.091,0,0,1,4.357,2.578l-3.112,7.646a19.456,19.456,0,0,0-3.556-2.045,9.985,9.985,0,0,0-4.179-.978q-5.69,0-7.913,2.756a9.775,9.775,0,0,0-2.223,6.313v2.845h18.049Z" transform="translate(7 211.019)" fill="#17161e"/>
      <path id="Path_2" data-name="Path 2" d="M23.745-60.9,50.253-25.714,76.76-60.9h9.811V5.133H76.383V-22.6q0-6.132.236-11.6t.8-10.943L53.271-13.828H47.045L22.9-45.052q.66,5.377.849,10.848t.189,11.6V5.133H13.746V-60.9Zm70.13,0H145v9.811h-40.94v17.452h35.752v9.811H104.063v19.15H145V5.133H93.875Z" transform="translate(235.125 211)" fill="#10d164"/>
    </g>
  </g>
</svg>
