<svg xmlns="http://www.w3.org/2000/svg" width="220.569" height="58.83" viewBox="0 0 220.569 58.83">
  <g id="Group_3" data-name="Group 3" transform="translate(-770 -798)">
    <path id="Icon_simple-adobexd" data-name="Icon simple-adobexd" d="M49.653.45H10.685A10.676,10.676,0,0,0,0,11.135v37.46A10.676,10.676,0,0,0,10.685,59.28H49.653A10.676,10.676,0,0,0,60.338,48.595V11.135A10.676,10.676,0,0,0,49.653.45ZM57.8,47.614a9.109,9.109,0,0,1-9.1,9.151H11.64a9.142,9.142,0,0,1-9.126-9.126V12.09A9.142,9.142,0,0,1,11.64,2.964H48.673A9.126,9.126,0,0,1,57.8,12.09ZM23.859,27.979,30.9,41.5c.126.2.05.4-.151.4H26.373a.493.493,0,0,1-.528-.327c-1.609-3.319-3.243-6.637-4.928-10.207h-.05c-1.508,3.369-3.168,6.914-4.777,10.232a.483.483,0,0,1-.453.277H11.489c-.251,0-.277-.2-.151-.352l6.889-13.124L11.565,15.132a.2.2,0,0,1,.151-.352H16.04a.4.4,0,0,1,.453.277c1.584,3.319,3.193,6.738,4.7,10.081h.05c1.458-3.319,3.067-6.763,4.626-10.056.126-.2.2-.327.453-.327H30.37c.2,0,.277.151.151.352Zm8.271,4.1c0-5.858,3.9-10.433,10.081-10.433a11.149,11.149,0,0,1,1.307.05V15.032a.252.252,0,0,1,.251-.251h3.972c.2,0,.251.075.251.2V38.061a17.907,17.907,0,0,0,.126,2.464c0,.151-.05.2-.2.277a14.976,14.976,0,0,1-6.436,1.458C36.027,42.284,32.13,38.915,32.13,32.077Zm11.389-6.436a3.8,3.8,0,0,0-1.458-.251c-3.168,0-5.38,2.439-5.38,6.486,0,4.626,2.263,6.486,5.1,6.486a4.743,4.743,0,0,0,1.735-.277V25.641Z" transform="translate(770 797.55)"/>
    <path id="Icon_awesome-sketch" data-name="Icon awesome-sketch" d="M3.062,19.347.633,22.617H12.517l.906-17.163Zm48.429-15.3L34.6,2.25l17.82,19.33L51.491,4.049ZM14.185,26.714l-1.471-2.889H.751L30.284,58.191Zm.263-4.1H51.741L41.039,11,33.107,2.381Zm39.04,1.195L35.9,58.191l29.52-34.365H53.487ZM54,7.109,52.765,5.454l.118,2.272.8,14.891H65.542ZM14.355,10.326l-.6,11.241L31.584,2.25,14.7,4.049Zm37.78,13.486H14.053L19.621,34.7,33.107,61.08,52.135,23.812Z" transform="translate(854.928 795.75)"/>
    <g id="Group_2" data-name="Group 2" transform="translate(945.644 798)">
      <g id="corel" transform="translate(0)">
        <path id="Path_1" data-name="Path 1" d="M135.439,48.87l-8.557-8.557a1.069,1.069,0,0,0-.756-.313H94.037a3.212,3.212,0,0,0-3.209,3.209V95.621a3.212,3.212,0,0,0,3.209,3.209h38.507a3.212,3.212,0,0,0,3.209-3.209V49.627A1.069,1.069,0,0,0,135.439,48.87ZM127.2,43.652l4.905,4.905H127.2Zm5.348,53.039H94.037a1.071,1.071,0,0,1-1.07-1.07V43.209a1.071,1.071,0,0,1,1.07-1.07h31.019v7.487a1.069,1.069,0,0,0,1.07,1.07h7.487V95.621A1.071,1.071,0,0,1,132.543,96.69Z" transform="translate(-90.828 -40)"/>
        <path id="Path_3" data-name="Path 3" d="M166.448,196H163.9a1.069,1.069,0,0,0-1.07,1.07v7.487a1.069,1.069,0,0,0,1.07,1.07h2.551a2.8,2.8,0,0,0,2.8-2.8V198.8A2.8,2.8,0,0,0,166.448,196Zm.658,6.829a.659.659,0,0,1-.658.658h-1.481v-5.348h1.481a.659.659,0,0,1,.658.658Z" transform="translate(-143.575 -154.285)"/>
        <path id="Path_4" data-name="Path 4" d="M137.625,198.139h2.551a1.07,1.07,0,1,0,0-2.139h-2.551a2.8,2.8,0,0,0-2.8,2.8v4.032a2.8,2.8,0,0,0,2.8,2.8h2.551a1.07,1.07,0,1,0,0-2.139h-2.551a.659.659,0,0,1-.658-.658V198.8A.659.659,0,0,1,137.625,198.139Z" transform="translate(-123.062 -154.285)"/>
        <path id="Path_5" data-name="Path 5" d="M194.725,196H191.9a1.069,1.069,0,0,0-1.07,1.07v7.487a1.07,1.07,0,0,0,2.139,0v-1.7l2.453,2.453a1.069,1.069,0,1,0,1.512-1.512l-1.487-1.487a2.525,2.525,0,0,0,1.8-2.415V198.52A2.523,2.523,0,0,0,194.725,196Zm.381,3.9a.382.382,0,0,1-.381.381h-1.758v-2.139h1.758a.382.382,0,0,1,.381.381Z" transform="translate(-164.087 -154.285)"/>
        <path id="Path_6" data-name="Path 6" d="M146.594,101.95a1.069,1.069,0,0,0,1.07-1.07V96.6a1.042,1.042,0,0,0-.138-.5c3.274-3.012,6.556-9.759,6.556-14.692,0-6.158-3.329-9.412-9.627-9.412s-9.627,3.255-9.627,9.412c0,4.933,3.282,11.68,6.556,14.692a1.041,1.041,0,0,0-.138.5v4.279a1.069,1.069,0,0,0,1.07,1.07Zm-2.139-27.81c1.949,0,3.209,3.275,3.209,8.343,0,5.55-2.112,11.454-3.209,12.852-1.1-1.4-3.209-7.3-3.209-12.852C141.246,77.414,142.506,74.139,144.455,74.139Zm7.487,7.273c0,3.591-1.772,7.557-3.649,10.371a34.539,34.539,0,0,0,1.51-9.3c0-3.749-.61-6.156-1.43-7.71C150.813,75.753,151.942,77.9,151.942,81.412Zm-11.406-6.64c-.819,1.554-1.43,3.961-1.43,7.71a34.529,34.529,0,0,0,1.51,9.3c-1.876-2.813-3.649-6.78-3.649-10.371C136.967,77.9,138.1,75.753,140.536,74.772Zm4.988,22.9V99.81h-2.139V97.671Z" transform="translate(-123.062 -63.443)"/>
      </g>
    </g>
  </g>
</svg>
