<svg xmlns="http://www.w3.org/2000/svg" width="55.298" height="52.995" viewBox="0 0 55.298 52.995">
  <path id="github" d="M27.649.5A27.409,27.409,0,0,0,0,27.67,27.215,27.215,0,0,0,18.9,53.448c1.382.256,1.889-.585,1.889-1.306,0-.645-.023-2.355-.035-4.62-7.691,1.638-9.313-3.645-9.313-3.645C10.189,40.741,8.371,39.9,8.371,39.9c-2.5-1.684.194-1.65.194-1.65a5.784,5.784,0,0,1,4.235,2.8c2.465,4.154,6.472,2.954,8.053,2.26A5.753,5.753,0,0,1,22.6,39.679c-6.14-.68-12.594-3.016-12.594-13.426a10.38,10.38,0,0,1,2.846-7.29,9.506,9.506,0,0,1,.242-7.191s2.316-.728,7.6,2.786a26.51,26.51,0,0,1,13.824,0c5.253-3.514,7.569-2.786,7.569-2.786a9.769,9.769,0,0,1,.276,7.191,10.422,10.422,0,0,1,2.834,7.29c0,10.437-6.463,12.735-12.615,13.4a6.447,6.447,0,0,1,1.866,5.027c0,3.636-.035,6.557-.035,7.44,0,.712.484,1.562,1.9,1.29A27.132,27.132,0,0,0,55.3,27.67,27.414,27.414,0,0,0,27.649.5Z" transform="translate(0 -0.5)" fill="#fff"/>
</svg>
