<svg xmlns="http://www.w3.org/2000/svg" width="53.259" height="53.27" viewBox="0 0 53.259 53.27">
  <g id="instagram" transform="translate(-0.449)">
    <path id="Path_9" data-name="Path 9" d="M53.573,15.661A19.465,19.465,0,0,0,52.334,9.2,13.646,13.646,0,0,0,44.54,1.4,19.515,19.515,0,0,0,38.078.167C35.226.031,34.321,0,27.089,0S18.951.031,16.11.156A19.47,19.47,0,0,0,9.648,1.394a13,13,0,0,0-4.725,3.08,13.115,13.115,0,0,0-3.07,4.714A19.517,19.517,0,0,0,.615,15.651C.48,18.5.449,19.408.449,26.64S.48,34.778.6,37.619a19.464,19.464,0,0,0,1.239,6.462,13.644,13.644,0,0,0,7.794,7.794A19.518,19.518,0,0,0,16.1,53.113c2.841.125,3.746.156,10.979.156s8.138-.031,10.979-.156a19.46,19.46,0,0,0,6.462-1.238,13.625,13.625,0,0,0,7.795-7.794,19.53,19.53,0,0,0,1.238-6.462c.125-2.841.156-3.746.156-10.979S53.7,18.5,53.572,15.662Zm-4.8,21.749a14.6,14.6,0,0,1-.916,4.943A8.837,8.837,0,0,1,42.8,47.411a14.653,14.653,0,0,1-4.943.915c-2.81.125-3.652.156-10.76.156s-7.961-.031-10.76-.156a14.593,14.593,0,0,1-4.943-.915,8.2,8.2,0,0,1-3.059-1.988,8.282,8.282,0,0,1-1.988-3.059,14.655,14.655,0,0,1-.915-4.943c-.125-2.81-.156-3.653-.156-10.76s.031-7.961.156-10.76a14.593,14.593,0,0,1,.915-4.943,8.1,8.1,0,0,1,2-3.06,8.269,8.269,0,0,1,3.059-1.987A14.663,14.663,0,0,1,16.35,5c2.81-.125,3.653-.156,10.76-.156S35.07,4.87,37.87,5a14.6,14.6,0,0,1,4.943.916A8.191,8.191,0,0,1,45.872,7.9a8.28,8.28,0,0,1,1.988,3.06,14.66,14.66,0,0,1,.916,4.943c.125,2.81.156,3.652.156,10.76s-.031,7.94-.156,10.75Zm0,0" fill="#fff"/>
    <path id="Path_10" data-name="Path 10" d="M138.633,124.5a13.684,13.684,0,1,0,13.684,13.684A13.688,13.688,0,0,0,138.633,124.5Zm0,22.561a8.877,8.877,0,1,1,8.877-8.877,8.878,8.878,0,0,1-8.877,8.877Zm0,0" transform="translate(-111.545 -111.544)" fill="#fff"/>
    <path id="Path_11" data-name="Path 11" d="M368.839,91.8a3.195,3.195,0,1,1-3.2-3.195A3.195,3.195,0,0,1,368.839,91.8Zm0,0" transform="translate(-324.33 -79.382)" fill="#fff"/>
  </g>
</svg>
