<svg xmlns="http://www.w3.org/2000/svg" width="52.858" height="52.858" viewBox="0 0 52.858 52.858">
  <path id="linkedin" d="M26.429,0A26.429,26.429,0,1,0,52.858,26.429,26.432,26.432,0,0,0,26.429,0Zm-7.68,39.953H12.312V20.588h6.437ZM15.531,17.944h-.042a3.355,3.355,0,1,1,.085-6.691,3.356,3.356,0,1,1-.043,6.691ZM41.958,39.953H35.522V29.593c0-2.6-.932-4.379-3.261-4.379a3.524,3.524,0,0,0-3.3,2.354,4.408,4.408,0,0,0-.212,1.571V39.953H22.311s.084-17.548,0-19.365h6.436V23.33a6.39,6.39,0,0,1,5.8-3.2c4.235,0,7.41,2.768,7.41,8.716Zm0,0" fill="#fff"/>
</svg>
